<mxfile host="65bd71144e">
    <diagram id="TDZte-3qLvVmydJipvMZ" name="第 1 页">
        <mxGraphModel dx="1097" dy="609" grid="1" gridSize="10" guides="1" tooltips="1" connect="1" arrows="1" fold="1" page="1" pageScale="1" pageWidth="827" pageHeight="1169" math="0" shadow="0">
            <root>
                <mxCell id="0"/>
                <mxCell id="1" parent="0"/>
                <mxCell id="2" value="" style="rounded=0;whiteSpace=wrap;html=1;" parent="1" vertex="1">
                    <mxGeometry x="34" y="70" width="760" height="400" as="geometry"/>
                </mxCell>
                <mxCell id="3" value="服务页面" style="text;html=1;strokeColor=none;fillColor=none;align=center;verticalAlign=middle;whiteSpace=wrap;rounded=0;" parent="1" vertex="1">
                    <mxGeometry x="354" y="20" width="60" height="30" as="geometry"/>
                </mxCell>
                <mxCell id="4" value="部署" style="rounded=0;whiteSpace=wrap;html=1;" parent="1" vertex="1">
                    <mxGeometry x="160" y="110" width="100" height="40" as="geometry"/>
                </mxCell>
                <mxCell id="5" value="构建" style="rounded=0;whiteSpace=wrap;html=1;" parent="1" vertex="1">
                    <mxGeometry x="260" y="110" width="100" height="40" as="geometry"/>
                </mxCell>
                <mxCell id="6" value="基础信息" style="rounded=0;whiteSpace=wrap;html=1;" vertex="1" parent="1">
                    <mxGeometry x="60" y="110" width="100" height="40" as="geometry"/>
                </mxCell>
            </root>
        </mxGraphModel>
    </diagram>
</mxfile>